<svg id="Layer_1" viewBox="0 0 512 512" xmlns="http://www.w3.org/2000/svg" xmlns:xlink="http://www.w3.org/1999/xlink" data-name="Layer 1"><linearGradient id="linear-gradient" gradientUnits="userSpaceOnUse" x1="66.109" x2="445.896" y1="43.029" y2="422.816"><stop offset="0" stop-color="#ff9b8c"/><stop offset="1" stop-color="#fd4d86"/></linearGradient><path d="m290.285 49.77h-194.693c-48.298 0-87.592 39.294-87.592 87.592v103.712c0 48.298 39.294 87.592 87.592 87.592h6.412v62.221c0 2.427 1.462 4.614 3.703 5.543.743.308 1.522.457 2.296.457 1.561 0 3.095-.609 4.243-1.756l66.492-66.465h111.547c48.282 0 87.563-39.294 87.563-87.592v-103.712c0-48.298-39.281-87.592-87.563-87.592zm-173.328 158.836c-10.667 0-19.388-8.72-19.388-19.388s8.72-19.388 19.388-19.388 19.388 8.72 19.388 19.388-8.72 19.388-19.388 19.388zm75.982 0c-10.667 0-19.388-8.72-19.388-19.388s8.72-19.388 19.388-19.388 19.359 8.72 19.359 19.388-8.691 19.388-19.359 19.388zm75.982 0c-10.696 0-19.387-8.72-19.387-19.388s8.691-19.388 19.387-19.388 19.359 8.72 19.359 19.388-8.691 19.388-19.359 19.388zm235.08-5.901v103.712c0 48.282-39.28 87.563-87.562 87.563h-6.441v62.25c0 2.427-1.462 4.615-3.704 5.543-.742.307-1.521.457-2.295.457-1.562 0-3.096-.609-4.243-1.757l-66.493-66.493h-111.517c-20.177 0-39.526-7.102-54.901-19.49l21.834-21.825h101.608c61.517 0 111.563-50.06 111.563-111.592v-103.712c0-7.617-.769-15.057-2.23-22.249h16.819c48.282 0 87.562 39.294 87.562 87.592z" fill="url(#linear-gradient)"/></svg>